<svg xmlns="http://www.w3.org/2000/svg" viewBox="0 0 200 200" fill="none">
  <defs>
    <linearGradient id="logoGradient" x1="0%" y1="0%" x2="100%" y2="100%">
      <stop offset="0%" style="stop-color:#00ffff"/>
      <stop offset="100%" style="stop-color:#0080ff"/>
    </linearGradient>
  </defs>
  <!-- Helmet Base -->
  <path d="M100 20 C60 20 30 60 30 100 C30 140 60 170 100 180 C140 170 170 140 170 100 C170 60 140 20 100 20" 
        fill="url(#logoGradient)" opacity="0.9"/>
  <!-- Helmet Top -->
  <path d="M100 10 L95 30 L105 30 Z" fill="#00ffff"/>
  <circle cx="100" cy="8" r="6" fill="#00ffff"/>
  <!-- Visor -->
  <path d="M50 90 Q100 120 150 90 L140 110 Q100 130 60 110 Z" fill="#0a0a0f"/>
  <!-- Face Guard -->
  <path d="M70 120 L100 150 L130 120 L120 120 L100 140 L80 120 Z" fill="#0a0a0f"/>
  <!-- Side Details Left -->
  <path d="M40 100 L30 110 L40 120 L50 110 Z" fill="#00ffff"/>
  <!-- Side Details Right -->
  <path d="M160 100 L170 110 L160 120 L150 110 Z" fill="#00ffff"/>
</svg>
